<svg xmlns="http://www.w3.org/2000/svg" viewBox="0 0 512 512">
  <defs>
    <linearGradient id="bg" x1="0" y1="0" x2="0" y2="1">
      <stop offset="0" stop-color="#16334e"/>
      <stop offset="1" stop-color="#0d2033"/>
    </linearGradient>
  </defs>
  <rect width="512" height="512" fill="url(#bg)"/>

  <!-- brugpijlers -->
  <rect x="52" y="286" width="60" height="120" rx="10" fill="#ffffff"/>
  <rect x="400" y="286" width="60" height="120" rx="10" fill="#ffffff"/>

  <!-- geopende brugkleppen -->
  <g fill="#ffffff">
    <rect x="64" y="120" width="34" height="180" rx="12" transform="rotate(24 81 300)"/>
    <rect x="414" y="120" width="34" height="180" rx="12" transform="rotate(-24 431 300)"/>
  </g>

  <!-- zeilboot in de opening -->
  <g>
    <path d="M256 148 L256 300 L172 300 Z" fill="#6fa8dc"/>
    <path d="M268 190 L268 300 L330 300 Z" fill="#8fbce6"/>
    <path d="M164 316 L348 316 L318 352 L194 352 Z" fill="#ffffff"/>
    <rect x="252" y="120" width="8" height="196" rx="4" fill="#ffffff"/>
  </g>

  <!-- water -->
  <g fill="none" stroke="#4f93dd" stroke-width="18" stroke-linecap="round">
    <path d="M60 420 q32 -22 64 0 t64 0 t64 0 t64 0 t64 0 t64 0"/>
    <path d="M96 462 q32 -20 64 0 t64 0 t64 0 t64 0 t64 0" opacity="0.55"/>
  </g>
</svg>
